<?xml version="1.0" standalone="no"?><!DOCTYPE svg PUBLIC "-//W3C//DTD SVG 1.1//EN" "http://www.w3.org/Graphics/SVG/1.1/DTD/svg11.dtd"><svg t="1673255331875" class="icon" viewBox="0 0 1024 1024" version="1.1" xmlns="http://www.w3.org/2000/svg" p-id="47430" xmlns:xlink="http://www.w3.org/1999/xlink" width="200" height="200"><path d="M141.568 139.008h736.3072V333.824H141.568z" fill="#DCEDFF" p-id="47431"></path><path d="M874.9056 97.28H152.6784c-25.3952 0-46.08 20.6848-46.08 46.08v730.3168c0 25.3952 20.6848 46.08 46.08 46.08h722.2272c25.3952 0 46.08-20.6848 46.08-46.08V143.36c0-25.3952-20.6848-46.08-46.08-46.08z m-5.12 51.2v159.744H157.7984V148.48h711.9872zM157.7984 868.5568V359.424h711.9872v509.1328H157.7984z" fill="#5B90EF" p-id="47432"></path><path d="M443.2384 783.88736l88.66304-360.0896 49.7152 12.24192-88.66816 360.0896zM653.7216 770.9184l-36.7104-35.6864 121.4976-125.0304-121.2416-121.2416 36.1984-36.1984 139.0592 139.0592a25.58976 25.58976 0 0 1 0.256 35.9424l-139.0592 143.1552zM367.36 771.1744l-139.0592-139.0592a25.58976 25.58976 0 0 1-0.256-35.9424L367.104 453.0688l36.7104 35.6864-121.4976 125.0304 121.2416 121.2416-36.1984 36.1472z" fill="#5B90EF" p-id="47433"></path></svg>