<?xml version="1.0" standalone="no"?>
<!DOCTYPE svg PUBLIC "-//W3C//DTD SVG 20010904//EN"
 "http://www.w3.org/TR/2001/REC-SVG-20010904/DTD/svg10.dtd">
<svg version="1.0" xmlns="http://www.w3.org/2000/svg"
 width="200.000000pt" height="200.000000pt" viewBox="0 0 200.000000 200.000000"
 preserveAspectRatio="xMidYMid meet">

<g transform="translate(0.000000,200.000000) scale(0.100000,-0.100000)"
fill="#000000" stroke="none">
<path d="M100 1710 l0 -190 190 0 190 0 0 190 0 190 -190 0 -190 0 0 -190z
m330 -5 l0 -135 -135 0 -135 0 0 135 0 135 135 0 135 0 0 -135z"/>
<path d="M210 1710 l0 -80 80 0 80 0 0 80 0 80 -80 0 -80 0 0 -80z"/>
<path d="M640 1870 c0 -25 -4 -30 -25 -30 -20 0 -25 -5 -25 -25 0 -20 -5 -25
-25 -25 -21 0 -25 -5 -25 -30 0 -25 4 -30 25 -30 23 0 25 -3 25 -50 0 -47 2
-50 25 -50 24 0 25 -3 25 -55 0 -54 0 -55 30 -55 27 0 30 -3 30 -30 0 -25 4
-30 25 -30 20 0 25 -5 25 -25 0 -20 -5 -25 -25 -25 -20 0 -25 -5 -25 -25 0
-21 -5 -25 -30 -25 -25 0 -30 4 -30 25 0 20 -5 25 -25 25 -25 0 -25 1 -25 80
0 79 0 80 -25 80 -24 0 -25 -3 -25 -55 l0 -55 -110 0 -110 0 0 -25 c0 -20 -5
-25 -25 -25 -20 0 -25 5 -25 25 0 25 -1 25 -85 25 -84 0 -85 0 -85 -25 0 -21
5 -25 30 -25 25 0 30 -4 30 -25 0 -21 -5 -25 -30 -25 -27 0 -30 -3 -30 -30 0
-27 3 -30 30 -30 27 0 30 3 30 30 0 25 4 30 25 30 21 0 25 -5 25 -30 0 -27 3
-30 30 -30 25 0 30 -4 30 -25 0 -20 5 -25 25 -25 24 0 25 -3 25 -55 0 -52 -1
-55 -25 -55 -20 0 -25 -5 -25 -25 0 -24 -3 -25 -55 -25 -52 0 -55 1 -55 25 0
21 -5 25 -30 25 l-30 0 0 -80 0 -80 30 0 c27 0 30 -3 30 -30 0 -25 4 -30 25
-30 20 0 25 -5 25 -25 0 -21 5 -25 30 -25 25 0 30 -4 30 -25 0 -20 5 -25 25
-25 21 0 25 -5 25 -30 0 -25 -4 -30 -25 -30 -20 0 -25 -5 -25 -25 0 -21 -5
-25 -30 -25 -25 0 -30 4 -30 25 0 20 -5 25 -25 25 -24 0 -25 3 -25 55 0 54 0
55 -30 55 -30 0 -30 -1 -30 -55 0 -54 0 -55 30 -55 25 0 30 -4 30 -25 0 -21
-5 -25 -30 -25 -27 0 -30 -3 -30 -30 0 -27 3 -30 30 -30 25 0 30 -4 30 -25 0
-21 -5 -25 -30 -25 -25 0 -30 -4 -30 -25 0 -21 5 -25 30 -25 25 0 30 4 30 25
0 20 5 25 25 25 20 0 25 -5 25 -25 l0 -25 165 0 165 0 0 -110 0 -110 25 0 c20
0 25 -5 25 -25 0 -20 -5 -25 -25 -25 -25 0 -25 -1 -25 -85 0 -84 0 -85 25 -85
25 0 25 1 25 85 l0 85 80 0 80 0 0 50 0 50 55 0 55 0 0 -50 c0 -47 -2 -50 -25
-50 -21 0 -25 -5 -25 -30 0 -25 4 -30 25 -30 21 0 25 5 25 30 0 30 1 30 55 30
l55 0 0 -55 c0 -54 0 -55 -30 -55 -27 0 -30 -3 -30 -30 0 -27 3 -30 30 -30 27
0 30 3 30 30 l0 30 80 0 80 0 0 -30 c0 -25 4 -30 25 -30 24 0 25 3 25 55 0 52
-1 55 -25 55 -21 0 -25 5 -25 30 0 30 1 30 55 30 l55 0 0 50 c0 47 2 50 25 50
21 0 25 5 25 30 0 27 3 30 30 30 27 0 30 -3 30 -30 0 -25 4 -30 25 -30 20 0
25 -5 25 -25 0 -24 -3 -25 -55 -25 -52 0 -55 -1 -55 -25 0 -21 5 -25 30 -25
27 0 30 -3 30 -30 0 -30 -1 -30 -55 -30 -52 0 -55 -1 -55 -25 0 -20 5 -25 25
-25 21 0 25 -5 25 -30 0 -27 3 -30 30 -30 27 0 30 3 30 30 0 25 4 30 25 30 21
0 25 -5 25 -30 0 -25 4 -30 25 -30 21 0 25 5 25 30 0 27 3 30 30 30 27 0 30
-3 30 -30 l0 -30 105 0 105 0 0 30 c0 29 -1 30 -50 30 -47 0 -50 2 -50 25 0
25 1 25 80 25 l80 0 0 -55 0 -55 55 0 c54 0 55 0 55 30 0 27 -3 30 -30 30 -25
0 -30 4 -30 25 0 21 5 25 30 25 27 0 30 3 30 30 0 27 -3 30 -30 30 -29 0 -30
1 -30 50 0 47 -2 50 -25 50 -20 0 -25 -5 -25 -25 0 -21 -5 -25 -30 -25 -25 0
-30 -4 -30 -25 0 -20 -5 -25 -25 -25 -23 0 -25 3 -25 50 0 47 2 50 25 50 21 0
25 5 25 30 l0 30 85 0 85 0 0 55 0 55 -110 0 -110 0 0 25 c0 24 -3 25 -55 25
-52 0 -55 1 -55 25 0 24 3 25 55 25 54 0 55 0 55 30 0 30 1 30 55 30 l55 0 0
-55 c0 -52 1 -55 25 -55 20 0 25 5 25 25 0 21 5 25 30 25 l30 0 0 85 0 85 -30
0 c-25 0 -30 4 -30 25 0 21 5 25 30 25 l30 0 0 80 0 80 -30 0 c-27 0 -30 3
-30 30 0 27 3 30 30 30 l30 0 0 80 0 80 -30 0 c-25 0 -30 4 -30 25 0 21 5 25
30 25 30 0 30 1 30 55 0 54 0 55 -30 55 -30 0 -30 -1 -30 -55 0 -52 -1 -55
-25 -55 -20 0 -25 -5 -25 -25 0 -20 5 -25 25 -25 24 0 25 -3 25 -55 0 -52 -1
-55 -25 -55 -20 0 -25 5 -25 25 0 21 -5 25 -30 25 -25 0 -30 -4 -30 -25 0 -23
-3 -25 -50 -25 -47 0 -50 2 -50 25 0 20 5 25 25 25 21 0 25 5 25 30 0 25 4 30
25 30 20 0 25 5 25 25 0 23 -3 25 -50 25 l-50 0 0 55 c0 54 0 55 -30 55 -25 0
-30 4 -30 25 0 24 -3 25 -55 25 -52 0 -55 -1 -55 -25 0 -21 5 -25 30 -25 25 0
30 -4 30 -25 0 -21 -5 -25 -30 -25 -27 0 -30 -3 -30 -30 0 -27 3 -30 30 -30
25 0 30 -4 30 -25 0 -20 5 -25 25 -25 21 0 25 -5 25 -30 0 -30 -1 -30 -55 -30
-54 0 -55 0 -55 30 0 29 -1 30 -50 30 -47 0 -50 2 -50 25 0 20 5 25 25 25 l25
0 0 110 0 110 25 0 c20 0 25 5 25 25 0 20 -5 25 -25 25 -20 0 -25 -5 -25 -25
0 -20 -5 -25 -25 -25 -20 0 -25 5 -25 25 0 21 -5 25 -30 25 -25 0 -30 -4 -30
-25 0 -20 -5 -25 -25 -25 -24 0 -25 3 -25 55 l0 55 55 0 55 0 0 50 c0 47 2 50
25 50 20 0 25 -5 25 -25 0 -20 5 -25 25 -25 25 0 25 1 25 80 0 79 0 80 -25 80
-20 0 -25 -5 -25 -25 0 -20 -5 -25 -25 -25 -20 0 -25 5 -25 25 0 21 -5 25 -30
25 -27 0 -30 3 -30 30 0 25 -4 30 -25 30 -24 0 -25 -3 -25 -55 0 -54 0 -55
-30 -55 -25 0 -30 4 -30 25 0 20 -5 25 -25 25 -20 0 -25 -5 -25 -25 0 -20 5
-25 25 -25 24 0 25 -3 25 -55 0 -54 0 -55 30 -55 25 0 30 -4 30 -25 0 -24 -3
-25 -55 -25 -54 0 -55 0 -55 -30 0 -25 -4 -30 -25 -30 l-25 0 0 110 0 110 -30
0 c-25 0 -30 4 -30 25 0 21 5 25 30 25 27 0 30 3 30 30 0 30 -1 30 -55 30
l-55 0 0 -55 0 -55 -55 0 -55 0 0 55 c0 52 -1 55 -25 55 -25 0 -25 -1 -25 -85
l0 -85 -30 0 c-27 0 -30 3 -30 30 0 25 -4 30 -25 30 -21 0 -25 -5 -25 -30 0
-25 4 -30 25 -30 23 0 25 -3 25 -50 l0 -50 -55 0 -55 0 0 50 c0 47 -2 50 -25
50 -21 0 -25 5 -25 30 0 25 4 30 25 30 20 0 25 5 25 25 0 21 5 25 30 25 27 0
30 3 30 30 0 27 -3 30 -30 30 -27 0 -30 -3 -30 -30z m380 -165 c0 -20 -5 -25
-25 -25 -20 0 -25 -5 -25 -25 0 -21 -5 -25 -30 -25 -27 0 -30 -3 -30 -30 0
-27 3 -30 30 -30 25 0 30 -4 30 -25 0 -20 5 -25 25 -25 20 0 25 5 25 25 0 21
5 25 30 25 30 0 30 -1 30 -55 0 -52 1 -55 25 -55 20 0 25 -5 25 -25 0 -20 -5
-25 -25 -25 -20 0 -25 -5 -25 -25 0 -20 5 -25 25 -25 24 0 25 -3 25 -55 0 -52
-1 -55 -25 -55 -24 0 -25 -3 -25 -55 0 -54 0 -55 -30 -55 -30 0 -30 -1 -30
-55 0 -54 0 -55 30 -55 27 0 30 3 30 30 0 25 4 30 25 30 20 0 25 5 25 25 0 24
3 25 55 25 52 0 55 1 55 25 0 21 -5 25 -30 25 l-30 0 0 85 0 85 30 0 c25 0 30
4 30 25 0 21 -5 25 -30 25 -25 0 -30 4 -30 25 0 25 1 25 85 25 84 0 85 0 85
-25 0 -21 -5 -25 -30 -25 -25 0 -30 -4 -30 -25 0 -21 5 -25 30 -25 27 0 30 -3
30 -30 0 -27 -3 -30 -30 -30 -25 0 -30 -4 -30 -25 0 -21 5 -25 30 -25 27 0 30
-3 30 -30 0 -27 -3 -30 -30 -30 -29 0 -30 -1 -30 -50 0 -47 -2 -50 -25 -50
-21 0 -25 -5 -25 -30 0 -30 1 -30 55 -30 52 0 55 -1 55 -25 0 -21 -5 -25 -30
-25 -30 0 -30 -1 -30 -55 0 -54 0 -55 30 -55 25 0 30 4 30 25 0 20 5 25 25 25
21 0 25 5 25 30 0 25 4 30 25 30 21 0 25 -5 25 -30 0 -27 3 -30 30 -30 27 0
30 3 30 30 0 25 4 30 25 30 20 0 25 5 25 25 0 20 -5 25 -25 25 -21 0 -25 5
-25 30 0 25 4 30 25 30 20 0 25 5 25 25 0 21 5 25 30 25 25 0 30 -4 30 -25 0
-20 5 -25 25 -25 21 0 25 -5 25 -30 0 -25 4 -30 25 -30 24 0 25 3 25 55 0 54
0 55 30 55 l30 0 0 -80 c0 -79 0 -80 25 -80 21 0 25 -5 25 -30 0 -25 -4 -30
-25 -30 -25 0 -25 -1 -25 -80 0 -79 0 -80 25 -80 20 0 25 -5 25 -25 0 -20 -5
-25 -25 -25 -20 0 -25 5 -25 25 0 24 -3 25 -55 25 -52 0 -55 -1 -55 -25 0 -24
-3 -25 -55 -25 -52 0 -55 1 -55 25 0 24 -3 25 -55 25 -54 0 -55 0 -55 30 0 25
-4 30 -25 30 -21 0 -25 -5 -25 -30 0 -25 -4 -30 -25 -30 -21 0 -25 5 -25 30 0
27 -3 30 -30 30 -30 0 -30 -1 -30 -55 l0 -55 110 0 110 0 0 -30 c0 -30 -1 -30
-55 -30 -52 0 -55 -1 -55 -25 0 -20 -5 -25 -25 -25 -20 0 -25 -5 -25 -25 0
-20 5 -25 25 -25 21 0 25 -5 25 -30 0 -25 -4 -30 -25 -30 -21 0 -25 5 -25 30
0 27 -3 30 -30 30 -27 0 -30 -3 -30 -30 0 -25 -4 -30 -25 -30 -24 0 -25 -3
-25 -55 l0 -55 -55 0 c-54 0 -55 0 -55 30 0 25 4 30 25 30 l25 0 0 105 0 105
-80 0 c-79 0 -80 0 -80 -25 0 -24 3 -25 55 -25 l55 0 0 -55 0 -55 -55 0 c-54
0 -55 0 -55 30 0 25 -4 30 -25 30 -23 0 -25 3 -25 50 0 47 2 50 25 50 24 0 25
3 25 55 0 52 -1 55 -25 55 -21 0 -25 5 -25 30 0 30 -1 30 -55 30 -54 0 -55 0
-55 -30 0 -25 4 -30 25 -30 l25 0 0 -135 0 -135 30 0 c25 0 30 -4 30 -25 0
-21 -5 -25 -30 -25 -25 0 -30 4 -30 25 0 20 -5 25 -25 25 -20 0 -25 -5 -25
-25 0 -20 -5 -25 -25 -25 -20 0 -25 5 -25 25 0 20 5 25 25 25 21 0 25 5 25 30
0 25 -4 30 -25 30 -20 0 -25 5 -25 25 0 21 -5 25 -30 25 -25 0 -30 -4 -30 -25
l0 -25 -105 0 -105 0 0 25 0 25 105 0 105 0 0 25 c0 20 -5 25 -25 25 -21 0
-25 5 -25 30 0 25 4 30 25 30 24 0 25 3 25 55 0 52 -1 55 -25 55 -20 0 -25 5
-25 25 0 25 -1 25 -80 25 -79 0 -80 0 -80 25 0 25 1 25 80 25 79 0 80 0 80
-25 0 -20 5 -25 25 -25 20 0 25 -5 25 -25 0 -24 3 -25 55 -25 52 0 55 1 55 25
0 20 -5 25 -25 25 -20 0 -25 5 -25 25 0 20 5 25 25 25 21 0 25 5 25 30 0 25
-4 30 -25 30 -20 0 -25 5 -25 25 0 21 -5 25 -30 25 -25 0 -30 -4 -30 -25 0
-20 -5 -25 -25 -25 -20 0 -25 5 -25 25 0 21 -5 25 -30 25 -25 0 -30 -4 -30
-25 0 -25 -1 -25 -80 -25 l-80 0 0 -30 c0 -30 -1 -30 -55 -30 -52 0 -55 -1
-55 -25 0 -24 3 -25 55 -25 52 0 55 -1 55 -25 0 -25 1 -25 80 -25 l80 0 0 -55
c0 -52 -1 -55 -25 -55 -21 0 -25 -5 -25 -30 0 -30 -1 -30 -55 -30 -52 0 -55
-1 -55 -25 0 -20 -5 -25 -25 -25 -20 0 -25 5 -25 25 0 21 -5 25 -30 25 -25 0
-30 -4 -30 -25 0 -25 -1 -25 -80 -25 -79 0 -80 0 -80 25 0 20 -5 25 -25 25
-21 0 -25 5 -25 30 0 25 4 30 25 30 21 0 25 -5 25 -30 0 -30 1 -30 55 -30 54
0 55 0 55 30 0 25 4 30 25 30 20 0 25 5 25 25 0 24 3 25 55 25 54 0 55 0 55
30 l0 30 -80 0 c-79 0 -80 0 -80 25 0 20 -5 25 -25 25 -20 0 -25 5 -25 25 0
23 3 25 50 25 l50 0 0 85 c0 84 0 85 -25 85 -20 0 -25 5 -25 25 0 20 5 25 25
25 20 0 25 -5 25 -25 0 -25 1 -25 85 -25 l85 0 0 -30 c0 -25 4 -30 25 -30 21
0 25 5 25 30 0 25 4 30 25 30 20 0 25 5 25 25 0 23 -3 25 -50 25 -47 0 -50 2
-50 25 0 20 5 25 25 25 21 0 25 5 25 30 0 25 4 30 25 30 24 0 25 -3 25 -55 l0
-55 55 0 55 0 0 55 c0 52 -1 55 -25 55 -20 0 -25 5 -25 25 0 20 5 25 25 25 20
0 25 -5 25 -25 0 -25 1 -25 80 -25 l80 0 0 -55 0 -55 -50 0 c-47 0 -50 -2 -50
-25 0 -20 5 -25 25 -25 21 0 25 -5 25 -30 0 -25 4 -30 25 -30 21 0 25 5 25 30
0 27 3 30 30 30 25 0 30 4 30 25 0 20 5 25 25 25 20 0 25 5 25 25 0 20 -5 25
-25 25 -21 0 -25 5 -25 30 0 25 4 30 25 30 20 0 25 5 25 25 0 24 -3 25 -55 25
-54 0 -55 0 -55 30 0 30 1 30 55 30 52 0 55 1 55 25 0 20 -5 25 -25 25 -24 0
-25 3 -25 55 0 54 0 55 -30 55 -25 0 -30 4 -30 25 0 20 -5 25 -25 25 -24 0
-25 -3 -25 -55 0 -52 1 -55 25 -55 20 0 25 -5 25 -25 0 -20 -5 -25 -25 -25
-20 0 -25 -5 -25 -25 0 -20 -5 -25 -25 -25 -23 0 -25 3 -25 50 0 49 -1 50 -30
50 -27 0 -30 3 -30 30 0 25 -4 30 -25 30 -20 0 -25 5 -25 25 0 20 5 25 25 25
20 0 25 -5 25 -25 0 -21 5 -25 30 -25 30 0 30 1 30 55 0 52 1 55 25 55 20 0
25 5 25 25 0 20 5 25 25 25 20 0 25 5 25 25 0 24 3 25 55 25 52 0 55 -1 55
-25z m160 -160 c0 -20 -5 -25 -25 -25 -20 0 -25 5 -25 25 0 20 5 25 25 25 20
0 25 -5 25 -25z m-910 -160 c0 -25 1 -25 80 -25 79 0 80 0 80 25 0 20 5 25 25
25 20 0 25 -5 25 -25 0 -21 5 -25 30 -25 25 0 30 4 30 25 0 20 5 25 25 25 20
0 25 -5 25 -25 0 -20 5 -25 25 -25 21 0 25 -5 25 -30 l0 -30 -80 0 c-79 0 -80
0 -80 -25 0 -20 -5 -25 -25 -25 -20 0 -25 5 -25 25 0 25 -1 25 -80 25 l-80 0
0 30 c0 27 -3 30 -30 30 -25 0 -30 4 -30 25 0 21 5 25 30 25 25 0 30 -4 30
-25z m1350 -110 c0 -21 -5 -25 -30 -25 -25 0 -30 4 -30 25 0 21 5 25 30 25 25
0 30 -4 30 -25z m-1140 -110 c0 -20 -5 -25 -25 -25 -20 0 -25 5 -25 25 0 20 5
25 25 25 20 0 25 -5 25 -25z m970 -80 c0 -52 -1 -55 -25 -55 -24 0 -25 3 -25
55 0 52 1 55 25 55 24 0 25 -3 25 -55z m-1180 -80 c0 -21 -5 -25 -30 -25 -25
0 -30 4 -30 25 0 21 5 25 30 25 25 0 30 -4 30 -25z m1350 -540 l0 -85 -85 0
-85 0 0 85 0 85 85 0 85 0 0 -85z m-980 -55 c0 -27 3 -30 30 -30 27 0 30 3 30
30 0 25 4 30 25 30 21 0 25 -5 25 -30 0 -25 -4 -30 -25 -30 -20 0 -25 -5 -25
-25 0 -21 -5 -25 -30 -25 -25 0 -30 4 -30 25 0 20 -5 25 -25 25 -21 0 -25 5
-25 30 0 25 4 30 25 30 21 0 25 -5 25 -30z m440 -50 l0 -80 -30 0 c-25 0 -30
4 -30 25 0 20 -5 25 -25 25 -20 0 -25 5 -25 25 0 20 5 25 25 25 21 0 25 5 25
30 0 27 3 30 30 30 l30 0 0 -80z m370 -55 c0 -21 5 -25 30 -25 25 0 30 4 30
25 0 24 3 25 55 25 52 0 55 -1 55 -25 0 -24 -3 -25 -55 -25 -54 0 -55 0 -55
-30 0 -27 -3 -30 -30 -30 -25 0 -30 -4 -30 -25 0 -20 -5 -25 -25 -25 -20 0
-25 5 -25 25 0 20 5 25 25 25 21 0 25 5 25 30 0 25 -4 30 -25 30 -20 0 -25 5
-25 25 0 20 5 25 25 25 20 0 25 -5 25 -25z m380 -55 c0 -25 -4 -30 -25 -30
-21 0 -25 5 -25 30 0 25 4 30 25 30 21 0 25 -5 25 -30z"/>
<path d="M1020 1330 c0 -27 3 -30 30 -30 27 0 30 3 30 30 0 27 -3 30 -30 30
-27 0 -30 -3 -30 -30z"/>
<path d="M700 1060 c0 -25 4 -30 25 -30 21 0 25 5 25 30 0 25 -4 30 -25 30
-21 0 -25 -5 -25 -30z"/>
<path d="M1560 1060 c0 -27 3 -30 30 -30 27 0 30 3 30 30 0 27 -3 30 -30 30
-27 0 -30 -3 -30 -30z"/>
<path d="M430 1005 c0 -20 5 -25 25 -25 20 0 25 5 25 25 0 20 -5 25 -25 25
-20 0 -25 -5 -25 -25z"/>
<path d="M910 975 c0 -52 -1 -55 -25 -55 -20 0 -25 -5 -25 -25 0 -20 5 -25 25
-25 20 0 25 5 25 25 0 21 5 25 30 25 30 0 30 1 30 55 0 54 0 55 -30 55 -30 0
-30 -1 -30 -55z"/>
<path d="M1080 975 c0 -54 0 -55 -30 -55 -25 0 -30 -4 -30 -25 0 -21 5 -25 30
-25 25 0 30 -4 30 -25 0 -20 5 -25 25 -25 21 0 25 -5 25 -30 0 -25 -4 -30 -25
-30 -20 0 -25 -5 -25 -25 0 -23 3 -25 50 -25 49 0 50 -1 50 -30 0 -27 3 -30
30 -30 30 0 30 1 30 55 0 54 0 55 -30 55 -27 0 -30 3 -30 30 0 27 3 30 30 30
29 0 30 1 30 50 0 49 -1 50 -30 50 -27 0 -30 3 -30 30 0 27 3 30 30 30 25 0
30 4 30 25 0 25 -1 25 -80 25 l-80 0 0 -55z m100 -80 c0 -20 -5 -25 -25 -25
-20 0 -25 5 -25 25 0 20 5 25 25 25 20 0 25 -5 25 -25z"/>
<path d="M1560 950 c0 -25 -4 -30 -25 -30 -20 0 -25 -5 -25 -25 0 -21 -5 -25
-30 -25 -25 0 -30 -4 -30 -25 0 -21 5 -25 30 -25 25 0 30 4 30 25 0 20 5 25
25 25 20 0 25 -5 25 -25 0 -24 3 -25 55 -25 52 0 55 1 55 25 0 20 5 25 25 25
20 0 25 5 25 25 0 21 5 25 30 25 27 0 30 3 30 30 0 27 -3 30 -30 30 -27 0 -30
-3 -30 -30 0 -29 -1 -30 -50 -30 -49 0 -50 1 -50 30 0 27 -3 30 -30 30 -27 0
-30 -3 -30 -30z"/>
<path d="M1350 845 c0 -20 5 -25 25 -25 20 0 25 5 25 25 0 20 -5 25 -25 25
-20 0 -25 -5 -25 -25z"/>
<path d="M480 735 c0 -20 -5 -25 -25 -25 -21 0 -25 -5 -25 -30 0 -25 4 -30 25
-30 21 0 25 5 25 30 0 27 3 30 30 30 25 0 30 4 30 25 0 21 -5 25 -30 25 -25 0
-30 -4 -30 -25z"/>
<path d="M810 680 c0 -25 4 -30 25 -30 21 0 25 5 25 30 0 25 -4 30 -25 30 -21
0 -25 -5 -25 -30z"/>
<path d="M430 1330 c0 -25 4 -30 25 -30 21 0 25 5 25 30 0 25 -4 30 -25 30
-21 0 -25 -5 -25 -30z"/>
<path d="M1510 465 c0 -20 5 -25 25 -25 20 0 25 5 25 25 0 20 -5 25 -25 25
-20 0 -25 -5 -25 -25z"/>
<path d="M1510 1710 l0 -190 190 0 190 0 0 190 0 190 -190 0 -190 0 0 -190z
m320 -5 l0 -135 -135 0 -135 0 0 135 0 135 135 0 135 0 0 -135z"/>
<path d="M1620 1710 l0 -80 80 0 80 0 0 80 0 80 -80 0 -80 0 0 -80z"/>
<path d="M1720 1435 c0 -20 -5 -25 -25 -25 -20 0 -25 -5 -25 -25 0 -24 3 -25
55 -25 l55 0 0 50 c0 49 -1 50 -30 50 -25 0 -30 -4 -30 -25z"/>
<path d="M100 1220 c0 -30 1 -30 55 -30 54 0 55 0 55 30 0 30 -1 30 -55 30
-54 0 -55 0 -55 -30z"/>
<path d="M100 300 l0 -190 190 0 190 0 0 190 0 190 -190 0 -190 0 0 -190z
m330 5 l0 -135 -135 0 -135 0 0 135 0 135 135 0 135 0 0 -135z"/>
<path d="M210 300 l0 -80 80 0 80 0 0 80 0 80 -80 0 -80 0 0 -80z"/>
<path d="M700 195 c0 -20 5 -25 25 -25 21 0 25 -5 25 -30 0 -27 3 -30 30 -30
27 0 30 3 30 30 0 27 -3 30 -30 30 -25 0 -30 4 -30 25 0 20 -5 25 -25 25 -20
0 -25 -5 -25 -25z"/>
</g>
</svg>
